<?xml version="1.0" encoding="UTF-8" standalone="no"?>
<!DOCTYPE svg PUBLIC "-//W3C//DTD SVG 20010904//EN"
              "http://www.w3.org/TR/2001/REC-SVG-20010904/DTD/svg10.dtd">

<svg xmlns="http://www.w3.org/2000/svg"
     width="3.06in" height="1.90333in"
     viewBox="0 0 918 571">
  <path id="full-main"
        fill="black" stroke="black" stroke-width="1"
        d="M 434.00,0.21
           C 434.00,0.21 401.00,1.00 401.00,1.00
             401.00,1.00 386.00,2.00 386.00,2.00
             386.00,2.00 369.00,2.00 369.00,2.00
             369.00,2.00 358.00,2.96 358.00,2.96
             358.00,2.96 347.00,2.96 347.00,2.96
             347.00,2.96 332.00,4.04 332.00,4.04
             332.00,4.04 320.00,4.04 320.00,4.04
             320.00,4.04 307.00,5.00 307.00,5.00
             307.00,5.00 294.00,5.96 294.00,5.96
             261.48,7.38 229.33,12.28 198.00,21.29
             178.35,26.94 151.97,37.34 135.04,48.62
             127.60,53.57 121.26,70.52 117.58,79.00
             117.58,79.00 87.31,155.00 87.31,155.00
             63.61,221.38 41.26,287.93 22.85,356.00
             15.71,382.37 9.38,409.03 4.92,436.00
             4.92,436.00 0.00,476.00 0.00,476.00
             -0.22,494.82 -1.75,521.87 11.33,536.96
             15.05,541.26 31.27,551.78 37.00,555.86
             44.09,560.91 60.00,572.23 69.00,570.42
             72.33,569.75 82.59,563.28 86.00,561.19
             86.00,561.19 123.00,535.87 123.00,535.87
             159.85,508.28 194.48,476.52 227.00,444.00
             227.00,444.00 254.00,417.96 254.00,417.96
             257.32,414.79 264.41,406.97 268.00,405.17
             270.14,404.11 284.86,403.04 288.00,403.00
             288.00,403.00 304.00,403.00 304.00,403.00
             304.00,403.00 319.00,402.00 319.00,402.00
             319.00,402.00 446.00,402.00 446.00,402.00
             446.00,402.00 459.00,402.92 459.00,402.92
             459.00,402.92 472.00,402.00 472.00,402.00
             472.00,402.00 599.00,402.00 599.00,402.00
             599.00,402.00 614.00,403.00 614.00,403.00
             614.00,403.00 639.00,403.83 639.00,403.83
             642.04,404.12 646.29,403.70 649.00,404.74
             653.37,406.41 661.15,415.33 665.00,418.91
             665.00,418.91 705.00,457.91 705.00,457.91
             736.74,487.49 768.62,517.13 804.00,542.42
             812.16,548.25 838.92,566.58 847.00,569.77
             856.45,573.51 872.56,561.84 880.00,556.58
             885.75,552.51 903.02,541.18 906.67,536.96
             919.75,521.87 918.22,494.82 918.00,476.00
             918.00,476.00 913.08,436.00 913.08,436.00
             908.62,409.03 902.29,382.37 895.15,356.00
             876.87,288.41 855.10,221.75 831.05,156.00
             831.05,156.00 800.86,80.00 800.86,80.00
             797.70,72.86 790.21,54.30 784.79,49.90
             781.67,47.37 772.87,42.74 769.00,40.70
             753.93,32.78 737.38,26.25 721.00,21.58
             689.23,12.51 656.97,7.40 624.00,5.96
             624.00,5.96 613.00,5.00 613.00,5.00
             613.00,5.00 564.00,3.00 564.00,3.00
             564.00,3.00 548.00,2.00 548.00,2.00
             548.00,2.00 532.00,2.00 532.00,2.00
             532.00,2.00 517.00,1.00 517.00,1.00
             517.00,1.00 492.00,1.00 492.00,1.00
             492.00,1.00 475.00,0.21 475.00,0.21
             475.00,0.21 434.00,0.21 434.00,0.21 Z
           M 454.00,48.32
           C 461.45,47.51 469.17,47.57 476.00,50.99
             494.79,60.38 499.11,87.59 484.68,102.82
             477.37,110.53 469.05,112.12 459.00,112.00
             442.23,111.79 429.21,98.77 429.00,82.00
             428.89,72.15 430.20,64.70 437.32,57.18
             441.76,52.51 447.81,49.71 454.00,48.32 Z
           M 694.00,76.33
           C 703.61,75.26 712.81,76.14 719.47,84.09
             730.98,97.83 724.61,122.41 706.00,125.67
             697.31,127.20 687.56,125.43 681.33,118.82
             676.76,113.97 675.07,108.50 675.00,102.00
             674.86,88.74 680.62,79.54 694.00,76.33 Z
           M 194.00,114.30
           C 203.74,113.33 212.85,113.72 222.00,117.45
             252.41,129.84 259.40,171.50 237.56,194.83
             226.52,206.62 214.37,209.18 199.00,209.00
             164.23,208.59 145.41,169.71 159.32,140.00
             166.03,125.67 178.75,117.18 194.00,114.30 Z
           M 646.00,125.33
           C 655.61,124.26 664.81,125.14 671.47,133.09
             682.98,146.83 676.61,171.41 658.00,174.67
             649.31,176.20 639.56,174.43 633.33,167.82
             628.76,162.97 627.07,157.50 627.00,151.00
             626.86,137.74 632.62,128.54 646.00,125.33 Z
           M 740.00,127.33
           C 749.61,126.26 758.81,127.14 765.47,135.09
             776.98,148.83 770.61,173.41 752.00,176.67
             743.31,178.20 733.56,176.43 727.33,169.82
             722.76,164.97 721.07,159.50 721.00,153.00
             720.86,139.74 726.62,130.54 740.00,127.33 Z
           M 383.00,133.39
           C 388.57,132.63 398.29,132.14 402.90,135.65
             409.86,140.96 409.86,154.04 402.90,159.35
             398.64,162.59 393.04,162.06 388.00,162.00
             383.32,161.93 379.76,161.47 376.39,157.79
             370.88,151.76 370.68,137.38 383.00,133.39 Z
           M 521.00,134.39
           C 526.57,133.63 536.29,133.14 540.90,136.65
             547.86,141.96 547.86,155.04 540.90,160.35
             536.64,163.59 531.04,163.06 526.00,163.00
             521.32,162.93 517.76,162.47 514.39,158.79
             508.88,152.76 508.68,138.38 521.00,134.39 Z
           M 693.00,176.33
           C 702.61,175.26 711.81,176.14 718.47,184.09
             729.98,197.83 723.61,222.41 705.00,225.67
             696.31,227.20 686.56,225.43 680.33,218.82
             675.76,213.97 674.07,208.50 674.00,202.00
             673.86,188.74 679.62,179.54 693.00,176.33 Z
           M 445.00,178.22
           C 445.00,178.22 472.00,178.22 472.00,178.22
             474.96,178.04 477.37,178.03 479.96,179.74
             486.42,184.00 486.84,194.71 480.89,199.57
             477.53,202.32 474.05,201.99 470.00,202.00
             464.60,202.01 446.92,202.84 443.02,200.83
             435.03,196.70 433.87,182.85 445.00,178.22 Z
           M 327.00,211.29
           C 354.44,208.72 379.04,215.96 397.83,237.00
             408.58,249.04 416.81,267.71 417.00,284.00
             417.10,293.17 417.37,299.93 415.34,309.00
             410.29,331.53 394.54,350.92 374.00,361.19
             358.81,368.78 348.43,369.19 332.00,369.00
             299.74,368.62 271.49,343.88 262.03,314.00
             258.68,303.42 258.98,296.75 259.00,286.00
             259.06,247.03 289.54,217.01 327.00,211.29 Z
           M 313.00,265.00
           C 313.00,265.00 274.00,265.00 274.00,265.00
             265.59,265.02 264.42,265.14 262.43,279.00
             260.72,290.90 262.41,301.49 265.00,313.00
             265.00,313.00 313.00,313.00 313.00,313.00
             313.00,313.00 313.00,354.00 313.00,354.00
             313.02,362.41 313.14,363.58 327.00,365.57
             338.90,367.28 349.49,365.59 361.00,363.00
             361.00,363.00 361.00,313.00 361.00,313.00
             361.00,313.00 411.00,313.00 411.00,313.00
             413.59,301.49 415.28,290.90 413.57,279.00
             411.58,265.14 410.41,265.02 402.00,265.00
             402.00,265.00 361.00,265.00 361.00,265.00
             361.00,265.00 361.00,217.00 361.00,217.00
             349.49,214.41 338.90,212.72 327.00,214.43
             313.14,216.42 313.02,217.59 313.00,226.00
             313.00,226.00 313.00,265.00 313.00,265.00 Z
           M 363.00,218.00
           C 363.00,218.00 363.00,263.00 363.00,263.00
             363.00,263.00 409.00,263.00 409.00,263.00
             402.97,241.85 383.22,225.06 363.00,218.00 Z
           M 267.00,263.00
           C 267.00,263.00 311.00,263.00 311.00,263.00
             311.00,263.00 311.00,219.00 311.00,219.00
             292.22,224.36 272.36,244.22 267.00,263.00 Z
           M 590.00,250.30
           C 599.53,249.35 609.07,249.70 618.00,253.46
             646.78,265.58 654.11,305.19 633.82,328.00
             622.64,340.56 610.97,343.18 595.00,343.00
             561.60,342.60 543.23,306.04 555.46,277.00
             561.62,262.39 574.73,253.18 590.00,250.30 Z
           M 266.00,315.00
           C 273.06,335.22 289.85,354.97 311.00,361.00
             311.00,361.00 311.00,315.00 311.00,315.00
             311.00,315.00 266.00,315.00 266.00,315.00 Z
           M 363.00,315.00
           C 363.00,315.00 363.00,362.00 363.00,362.00
             385.25,354.23 402.23,337.25 410.00,315.00
             410.00,315.00 363.00,315.00 363.00,315.00 Z" />
</svg>
