<?xml version="1.0" encoding="UTF-8" standalone="no"?>
<!DOCTYPE svg PUBLIC "-//W3C//DTD SVG 20010904//EN"
              "http://www.w3.org/TR/2001/REC-SVG-20010904/DTD/svg10.dtd">

<svg xmlns="http://www.w3.org/2000/svg"
     width="0.61in" height="0.22in"
     viewBox="0 0 183 66">
  <path id="RB"
        fill="black" stroke="black" stroke-width="1"
        d="M 0.00,20.00
           C 3.43,21.36 6.37,20.96 10.00,21.00
             10.00,21.00 20.00,21.91 20.00,21.91
             20.00,21.91 42.00,23.17 42.00,23.17
             76.21,26.44 113.82,34.95 146.00,46.95
             156.09,50.71 175.52,57.77 182.00,66.00
             182.93,61.37 178.57,57.28 175.71,54.00
             168.33,45.51 159.85,37.92 151.00,31.01
             128.34,13.34 87.81,0.04 59.00,0.00
             59.00,0.00 50.00,0.00 50.00,0.00
             34.78,0.02 37.87,4.79 26.00,12.29
             18.65,16.93 8.65,19.60 0.00,20.00 Z" />
</svg>
