<?xml version="1.0" encoding="UTF-8" standalone="no"?>
<!DOCTYPE svg PUBLIC "-//W3C//DTD SVG 20010904//EN"
              "http://www.w3.org/TR/2001/REC-SVG-20010904/DTD/svg10.dtd">

<svg xmlns="http://www.w3.org/2000/svg"
     width="3.07333in" height="1.91in"
     viewBox="0 0 922 573">
  <path id="Selection"
        fill="black" stroke="black" stroke-width="1"
        d="M 433.00,0.21
           C 433.00,0.21 408.00,1.00 408.00,1.00
             408.00,1.00 394.00,2.00 394.00,2.00
             394.00,2.00 376.00,2.00 376.00,2.00
             376.00,2.00 365.00,2.96 365.00,2.96
             365.00,2.96 352.00,2.96 352.00,2.96
             352.00,2.96 337.00,4.00 337.00,4.00
             337.00,4.00 313.00,5.00 313.00,5.00
             313.00,5.00 288.00,6.83 288.00,6.83
             288.00,6.83 268.00,8.17 268.00,8.17
             249.16,9.99 230.35,13.54 212.00,18.13
             190.73,23.44 158.02,34.10 140.00,46.10
             127.97,54.12 122.18,70.05 117.00,83.00
             117.00,83.00 88.95,154.00 88.95,154.00
             65.03,219.38 43.05,285.79 24.85,353.00
             15.34,388.12 6.46,423.74 2.83,460.00
             2.83,460.00 1.00,480.00 1.00,480.00
             0.80,497.10 0.36,524.12 11.53,537.96
             15.92,543.40 30.58,552.57 37.00,557.14
             44.65,562.59 57.51,571.55 67.00,571.96
             76.46,572.37 83.44,566.70 91.00,561.67
             91.00,561.67 134.00,531.65 134.00,531.65
             157.34,513.62 179.44,494.00 201.00,473.91
             201.00,473.91 221.00,454.99 221.00,454.99
             221.00,454.99 241.00,435.58 241.00,435.58
             241.00,435.58 260.00,417.00 260.00,417.00
             263.28,413.73 267.76,408.92 272.00,407.09
             275.45,405.59 285.01,405.01 289.00,404.96
             289.00,404.96 305.00,404.96 305.00,404.96
             305.00,404.96 317.00,404.00 317.00,404.00
             317.00,404.00 606.00,404.00 606.00,404.00
             606.00,404.00 622.00,405.00 622.00,405.00
             622.00,405.00 639.00,405.72 639.00,405.72
             642.66,406.15 646.56,405.60 650.00,407.09
             655.32,409.38 662.49,417.71 667.00,421.91
             667.00,421.91 699.00,453.00 699.00,453.00
             699.00,453.00 716.00,469.04 716.00,469.04
             740.16,492.15 765.22,514.54 792.00,534.63
             792.00,534.63 831.00,561.67 831.00,561.67
             836.62,565.40 845.25,571.60 852.00,571.96
             863.33,572.55 875.13,564.17 884.00,557.86
             890.49,553.23 905.00,544.16 909.67,538.91
             918.05,529.49 920.85,510.31 921.00,498.00
             921.50,454.52 912.85,414.91 902.37,373.00
             887.90,315.10 869.23,258.45 850.00,202.00
             850.00,202.00 811.00,98.00 811.00,98.00
             811.00,98.00 798.31,68.00 798.31,68.00
             795.64,62.24 792.28,54.77 787.70,50.33
             783.34,46.10 771.79,40.64 766.00,37.75
             746.36,27.96 725.21,21.90 704.00,16.63
             689.52,13.02 668.88,9.61 654.00,8.17
             654.00,8.17 634.00,6.83 634.00,6.83
             634.00,6.83 611.00,5.00 611.00,5.00
             611.00,5.00 592.00,4.00 592.00,4.00
             592.00,4.00 573.00,3.00 573.00,3.00
             573.00,3.00 562.00,3.00 562.00,3.00
             562.00,3.00 547.00,2.00 547.00,2.00
             547.00,2.00 528.00,2.00 528.00,2.00
             528.00,2.00 513.00,1.00 513.00,1.00
             513.00,1.00 485.00,1.00 485.00,1.00
             485.00,1.00 468.00,0.21 468.00,0.21
             468.00,0.21 433.00,0.21 433.00,0.21 Z" />
</svg>
